<svg width="256" height="256" viewBox="0 0 100 100" fill="none" xmlns="http://www.w3.org/2000/svg">
  <defs>
    <linearGradient id="tile" x1="0" y1="0" x2="100" y2="100" gradientUnits="userSpaceOnUse">
      <stop stop-color="#8b5cf6"/>
      <stop offset="1" stop-color="#5b21b6"/>
    </linearGradient>
  </defs>
  <rect width="100" height="100" rx="22" fill="url(#tile)"/>
  <rect x="33" y="20" width="34" height="5.5" rx="2.75" fill="white"/>
  <path d="M 37.5 27 L 62.5 27 Q 65.5 27 65.5 30 L 63 32.5 Q 63 37 58.5 37 L 41.5 37 Q 37 37 37 32.5 L 34.5 30 Q 34.5 27 37.5 27 Z" fill="white"/>
  <rect x="28" y="41.5" width="44" height="6" rx="3" fill="white"/>
  <path d="M 32.5 49 L 67.5 49 Q 70.5 49 70.5 52 L 67.5 54.5 Q 67.5 59.5 62.5 59.5 L 37.5 59.5 Q 32.5 59.5 32.5 54.5 L 29.5 52 Q 29.5 49 32.5 49 Z" fill="white"/>
  <rect x="22" y="63" width="56" height="6.5" rx="3.25" fill="white"/>
  <path d="M 27.5 71 L 72.5 71 Q 76 71 76 74.5 L 72 77 Q 72 83 66 83 L 34 83 Q 28 83 28 77 L 24 74.5 Q 24 71 27.5 71 Z" fill="white"/>
</svg>
