<svg width="256" height="256" viewBox="0 0 36 36" fill="none" xmlns="http://www.w3.org/2000/svg">
  <rect width="36" height="36" rx="9" fill="#7c3aed"/>
  <rect x="5" y="7" width="26" height="6" rx="2.5" fill="white" fill-opacity="0.95"/>
  <rect x="14" y="4" width="8" height="4" rx="2" fill="white" fill-opacity="0.7"/>
  <path d="M7 13h22l-2 16a2 2 0 0 1-2 2H13a2 2 0 0 1-2-2L7 13z" fill="white" fill-opacity="0.25"/>
  <path d="M7 13h22l-2 16a2 2 0 0 1-2 2H13a2 2 0 0 1-2-2L7 13z" stroke="white" stroke-width="1.5" stroke-linejoin="round"/>
  <path d="M11.5 17 L10.5 24" stroke="white" stroke-width="1.2" stroke-linecap="round" stroke-opacity="0.4"/>
</svg>
